<?xml version="1.0" encoding="utf-8"?>
<!-- Generator: Adobe Illustrator 21.0.0, SVG Export Plug-In . SVG Version: 6.00 Build 0)  -->
<svg version="1.1" id="Layer_1" xmlns="http://www.w3.org/2000/svg" xmlns:xlink="http://www.w3.org/1999/xlink" x="0px" y="0px"
	 viewBox="0 0 77.1 23.6" style="enable-background:new 0 0 77.1 23.6;" xml:space="preserve">
<style type="text/css">
	.st0{clip-path:url(#SVGID_2_);}
	.st1{fill:#109DD9;}
	.st2{fill:#075DAA;}
	.st3{fill:#E8E8EA;}
</style>
<g>
	<defs>
		<rect id="SVGID_1_" y="0" width="77.1" height="23.6"/>
	</defs>
	<clipPath id="SVGID_2_">
		<use xlink:href="#SVGID_1_"  style="overflow:visible;"/>
	</clipPath>
	<path class="st0" d="M28,8.9h-4.1c-1.9,0-2.8-0.3-2.8-1V4.7c0-0.6,0.9-1,2.8-1H28c1.9,0,2.8,0.3,2.8,1v3.2
		C30.8,8.6,29.9,8.9,28,8.9 M28,10.4c3.4,0,5.1-0.9,5.1-2.6v-3c0-1.8-1.7-2.6-5.1-2.6h-4.1c-3.4,0-5.1,0.9-5.1,2.6v3
		c0,1.8,1.7,2.6,5.1,2.6H28z"/>
	<path class="st0" d="M72,8.9h-4.1c-1.9,0-2.8-0.3-2.8-1V4.7c0-0.6,0.9-1,2.8-1H72c1.9,0,2.8,0.3,2.8,1v3.2
		C74.8,8.6,73.9,8.9,72,8.9 M72,10.4c3.4,0,5.1-0.9,5.1-2.6v-3c0-1.8-1.7-2.6-5.1-2.6h-4.1c-3.4,0-5.1,0.9-5.1,2.6v3
		c0,1.8,1.7,2.6,5.1,2.6H72z"/>
	<path class="st0" d="M16.5,7.8V5.7c0-0.4-0.3-0.6-0.9-0.6h-5c-0.5,0-0.8,0.4-0.8,0.8s0.4,0.8,0.8,0.8H14v1.1c0,0.3-0.4,0.7-1.2,0.8
		c-0.6,0.2-1.1,0.2-1.6,0.2H5.7c-2.2,0-3.3-0.4-3.3-1.1V2.6c0-0.7,1.3-1,3.9-1h1.5c0.6,0,0.9-0.3,0.9-0.8C8.8,0.3,8.5,0,7.9,0H5.7
		C4.4,0,3.2,0.1,2.1,0.5C0.8,0.9,0,1.6,0,2.6v5.2c0,1,0.7,1.7,2,2.1c1,0.3,2.2,0.5,3.7,0.5h5.5c1.3,0,2.5-0.2,3.4-0.5
		C15.8,9.4,16.5,8.7,16.5,7.8"/>
	<path class="st0" d="M49.8,4.1c0,0.8-1.1,1.1-3.2,1.1H38V1.5h8.6c2.1,0,3.2,0.2,3.2,1.1V4.1z M50.1,0.4C49.1,0.2,48,0,46.6,0H36.3
		c-0.4,0-0.7,0.3-0.7,0.7v9.1c0,0.5,0.3,0.7,0.9,0.7h0.7c0.6,0,0.9-0.2,0.9-0.7V6.7h8.6c1.5,0,2.6-0.2,3.6-0.5c1.3-0.5,2-1.2,2-2.3
		V2.3C52.2,1.5,51.5,0.9,50.1,0.4"/>
	<path class="st0" d="M60.3,2.2c-2.1,0-3,0-4.3,0.5c-1.2,0.5-1.7,1.3-1.7,2.1v5c0,0.4,0.3,0.7,0.8,0.7h0.7c0.5,0,0.8-0.2,0.8-0.7v-5
		c0-0.7,0.9-1,2.7-1h1c0.6,0,0.9-0.3,0.9-0.8C61.1,2.5,60.8,2.2,60.3,2.2"/>
</g>
<rect y="13" class="st1" width="16.7" height="10.6"/>
<rect x="20.1" y="13" class="st1" width="16.7" height="10.6"/>
<rect x="40.2" y="13" class="st2" width="16.7" height="10.6"/>
<rect x="60.3" y="13" class="st3" width="16.7" height="10.6"/>
</svg>
